<mxfile host="65bd71144e">
    <diagram id="46U2wrvX4PX-CXD2EKpM" name="Page-1">
        <mxGraphModel dx="1690" dy="1865" grid="1" gridSize="10" guides="1" tooltips="1" connect="1" arrows="1" fold="1" page="1" pageScale="1" pageWidth="1654" pageHeight="1169" math="0" shadow="0">
            <root>
                <mxCell id="0"/>
                <mxCell id="1" parent="0"/>
                <mxCell id="41" value="" style="rounded=0;whiteSpace=wrap;html=1;" vertex="1" parent="1">
                    <mxGeometry x="210" y="-10" width="630" height="610" as="geometry"/>
                </mxCell>
                <mxCell id="30" value="" style="verticalLabelPosition=bottom;verticalAlign=top;html=1;shape=mxgraph.basic.arc;startAngle=0.49188688466388786;endAngle=0.9018574129474546;fillColor=none;rotation=-165;" vertex="1" parent="1">
                    <mxGeometry x="318.14" y="191.71" width="335.86" height="331.09" as="geometry"/>
                </mxCell>
                <mxCell id="2" value="" style="endArrow=classic;html=1;" edge="1" parent="1">
                    <mxGeometry width="50" height="50" relative="1" as="geometry">
                        <mxPoint x="270" y="90" as="sourcePoint"/>
                        <mxPoint x="590" y="580.3870022681451" as="targetPoint"/>
                    </mxGeometry>
                </mxCell>
                <mxCell id="5" value="TRUE WIND ANGLE&lt;br&gt;(TWA)" style="rounded=0;whiteSpace=wrap;html=1;fillColor=none;" vertex="1" parent="1">
                    <mxGeometry x="570" y="20" width="90" height="60" as="geometry"/>
                </mxCell>
                <mxCell id="12" value="" style="verticalLabelPosition=bottom;verticalAlign=top;html=1;shape=mxgraph.basic.arc;startAngle=0.49188688466388786;endAngle=0.7436371943260041;fillColor=none;rotation=-149;" vertex="1" parent="1">
                    <mxGeometry x="312.12" y="228.66" width="251.42" height="271.26" as="geometry"/>
                </mxCell>
                <mxCell id="14" value="Rhumbline Course&lt;br&gt;(Crh)" style="rounded=0;whiteSpace=wrap;html=1;fillColor=none;" vertex="1" parent="1">
                    <mxGeometry x="469" y="525" width="70" height="60" as="geometry"/>
                </mxCell>
                <mxCell id="15" value="" style="group;rotation=-10;" vertex="1" connectable="0" parent="1">
                    <mxGeometry x="372.1388586900749" y="283.767439671743" width="237.86114130992507" height="246.23256032825702" as="geometry"/>
                </mxCell>
                <mxCell id="10" style="edgeStyle=none;html=1;exitX=1;exitY=0.5;exitDx=0;exitDy=0;exitPerimeter=0;" edge="1" parent="15" source="7">
                    <mxGeometry relative="1" as="geometry">
                        <mxPoint x="287.8611413099251" y="216.23256032825702" as="targetPoint"/>
                    </mxGeometry>
                </mxCell>
                <mxCell id="7" value="" style="shape=display;whiteSpace=wrap;html=1;fillColor=none;rotation=-148;" vertex="1" parent="15">
                    <mxGeometry x="-15" y="63" width="186.42" height="40" as="geometry"/>
                </mxCell>
                <mxCell id="27" value="" style="ellipse;whiteSpace=wrap;html=1;fillColor=#000000;" vertex="1" parent="15">
                    <mxGeometry x="66.2111413099251" y="71.002560328257" width="20" height="20" as="geometry"/>
                </mxCell>
                <mxCell id="17" value="" style="verticalLabelPosition=bottom;verticalAlign=top;html=1;shape=mxgraph.basic.arc;startAngle=0.688824845842191;endAngle=0.7436371943260041;fillColor=none;rotation=-123;" vertex="1" parent="15">
                    <mxGeometry x="-56.14000000000001" y="-59.620000000000005" width="247.86" height="271.47" as="geometry"/>
                </mxCell>
                <mxCell id="26" value="Course&lt;br&gt;Offset" style="rounded=0;whiteSpace=wrap;html=1;fillColor=none;strokeColor=none;align=left;" vertex="1" parent="15">
                    <mxGeometry x="156.86114130992507" y="145.85256032825703" width="60" height="60" as="geometry"/>
                </mxCell>
                <mxCell id="18" value="Sailing&lt;br&gt;Course&lt;br&gt;(Co)" style="rounded=0;whiteSpace=wrap;html=1;fillColor=none;strokeColor=none;" vertex="1" parent="15">
                    <mxGeometry x="172.86114130992507" y="103.23256032825702" width="60" height="60" as="geometry"/>
                </mxCell>
                <mxCell id="34" value="Velocity Made on Course&lt;br&gt;VMC=V * cosine(Offset)&amp;nbsp;&amp;nbsp;" style="rounded=0;whiteSpace=wrap;html=1;fillColor=none;strokeColor=none;" vertex="1" parent="15">
                    <mxGeometry x="-15.20885869007492" y="186.23256032825702" width="186" height="60" as="geometry"/>
                </mxCell>
                <mxCell id="44" style="edgeStyle=none;html=1;entryX=-0.021;entryY=0.683;entryDx=0;entryDy=0;entryPerimeter=0;" edge="1" parent="15">
                    <mxGeometry relative="1" as="geometry">
                        <mxPoint x="174.60114130992508" y="143.21256032825727" as="targetPoint"/>
                        <mxPoint x="168.86114130992507" y="150.35256032825703" as="sourcePoint"/>
                    </mxGeometry>
                </mxCell>
                <mxCell id="23" value="" style="group" vertex="1" connectable="0" parent="1">
                    <mxGeometry x="469" y="12" width="117" height="200" as="geometry"/>
                </mxCell>
                <mxCell id="19" value="" style="ellipse;whiteSpace=wrap;html=1;aspect=fixed;fillColor=none;" vertex="1" parent="23">
                    <mxGeometry y="50" width="110" height="110" as="geometry"/>
                </mxCell>
                <mxCell id="21" style="edgeStyle=none;html=1;" edge="1" parent="23">
                    <mxGeometry relative="1" as="geometry">
                        <mxPoint x="55" as="targetPoint"/>
                        <mxPoint x="55" y="169" as="sourcePoint"/>
                    </mxGeometry>
                </mxCell>
                <mxCell id="20" value="" style="endArrow=none;html=1;exitX=0;exitY=0.5;exitDx=0;exitDy=0;entryX=1;entryY=0.5;entryDx=0;entryDy=0;" edge="1" parent="23" source="19" target="19">
                    <mxGeometry width="50" height="50" relative="1" as="geometry">
                        <mxPoint x="100" y="180" as="sourcePoint"/>
                        <mxPoint x="150" y="130" as="targetPoint"/>
                    </mxGeometry>
                </mxCell>
                <mxCell id="22" value="True&lt;br&gt;North" style="rounded=0;whiteSpace=wrap;html=1;fillColor=none;strokeColor=none;align=right;" vertex="1" parent="23">
                    <mxGeometry x="5" y="40" width="49" height="60" as="geometry"/>
                </mxCell>
                <mxCell id="16" value="" style="group;rotation=-10;" vertex="1" connectable="0" parent="1">
                    <mxGeometry x="430" y="56" width="140" height="280" as="geometry"/>
                </mxCell>
                <mxCell id="3" value="" style="shape=flexArrow;endArrow=classic;html=1;fillColor=#FFFFFF;" edge="1" parent="16">
                    <mxGeometry width="50" height="50" relative="1" as="geometry">
                        <mxPoint x="115" y="-10" as="sourcePoint"/>
                        <mxPoint x="51" y="204" as="targetPoint"/>
                    </mxGeometry>
                </mxCell>
                <mxCell id="6" value="" style="endArrow=classic;html=1;" edge="1" parent="16">
                    <mxGeometry width="50" height="50" relative="1" as="geometry">
                        <mxPoint x="130" y="-56" as="sourcePoint"/>
                        <mxPoint x="25" y="290" as="targetPoint"/>
                    </mxGeometry>
                </mxCell>
                <mxCell id="36" value="True Wind&lt;br&gt;&lt;div&gt;&lt;span&gt;Velocity&amp;nbsp;&lt;/span&gt;&lt;/div&gt;&lt;div&gt;&lt;span&gt;(VTW)&lt;/span&gt;&lt;/div&gt;" style="rounded=0;whiteSpace=wrap;html=1;fillColor=none;strokeColor=none;align=left;" vertex="1" parent="16">
                    <mxGeometry x="-14" y="202" width="90" height="60" as="geometry"/>
                </mxCell>
                <mxCell id="45" style="edgeStyle=none;html=1;" edge="1" parent="16">
                    <mxGeometry relative="1" as="geometry">
                        <mxPoint x="66" y="184" as="targetPoint"/>
                        <mxPoint x="76" y="191" as="sourcePoint"/>
                    </mxGeometry>
                </mxCell>
                <mxCell id="24" value="" style="verticalLabelPosition=bottom;verticalAlign=top;html=1;shape=mxgraph.basic.arc;startAngle=0.3;endAngle=0.38608586971786046;fillColor=#FFFFFF;rotation=-120;" vertex="1" parent="1">
                    <mxGeometry x="485" y="30" width="100" height="100" as="geometry"/>
                </mxCell>
                <mxCell id="28" value="Bearing True&lt;br&gt;Wind&lt;br&gt;(BTW)&amp;nbsp;" style="rounded=0;whiteSpace=wrap;html=1;fillColor=none;strokeColor=none;align=right;" vertex="1" parent="1">
                    <mxGeometry x="503" y="321" width="60" height="60" as="geometry"/>
                </mxCell>
                <mxCell id="32" value="True Wind Rhumbline Angle (TWRA)&lt;br&gt;&lt;br&gt;TWRA=(TWA-Crh) 0-180°&amp;nbsp;&amp;nbsp;" style="rounded=0;whiteSpace=wrap;html=1;fillColor=none;strokeColor=none;" vertex="1" parent="1">
                    <mxGeometry x="642" y="320" width="186" height="60" as="geometry"/>
                </mxCell>
                <mxCell id="33" value="True Wind Rhumbline Angle (TWRA)&lt;br&gt;&lt;br&gt;TWRA=(TWA-Crh) 0-180°&amp;nbsp;&amp;nbsp;" style="rounded=0;whiteSpace=wrap;html=1;fillColor=none;strokeColor=none;" vertex="1" parent="1">
                    <mxGeometry x="244" y="410" width="186" height="60" as="geometry"/>
                </mxCell>
                <mxCell id="35" value="Boat&lt;br&gt;&lt;div&gt;&lt;span&gt;Velocity (V)&lt;/span&gt;&lt;/div&gt;" style="rounded=0;whiteSpace=wrap;html=1;fillColor=none;strokeColor=none;align=left;" vertex="1" parent="1">
                    <mxGeometry x="654" y="450" width="90" height="60" as="geometry"/>
                </mxCell>
                <mxCell id="38" style="edgeStyle=none;html=1;" edge="1" parent="1">
                    <mxGeometry relative="1" as="geometry">
                        <mxPoint x="646" y="499" as="targetPoint"/>
                        <mxPoint x="576" y="549" as="sourcePoint"/>
                    </mxGeometry>
                </mxCell>
                <mxCell id="39" value="Velocity Made across Track&lt;br&gt;VMT=V * sine(Offset)&amp;nbsp;&amp;nbsp;" style="rounded=0;whiteSpace=wrap;html=1;fillColor=none;strokeColor=none;" vertex="1" parent="1">
                    <mxGeometry x="584" y="511" width="186" height="60" as="geometry"/>
                </mxCell>
                <mxCell id="46" style="edgeStyle=none;html=1;" edge="1" parent="1">
                    <mxGeometry relative="1" as="geometry">
                        <mxPoint x="507.5" y="192.70999999999998" as="targetPoint"/>
                        <mxPoint x="547.5" y="202.70999999999998" as="sourcePoint"/>
                    </mxGeometry>
                </mxCell>
            </root>
        </mxGraphModel>
    </diagram>
</mxfile>